<svg xmlns="http://www.w3.org/2000/svg" style="isolation:isolate" viewBox="0 0 468 270" width="624" height="360">
  <path d="M102.303 262.945c-.58-.58-1.055-4.406-1.055-8.503 0-7.127-.222-7.494-5.141-8.527l-5.141-1.079 5.245-4.461c2.884-2.454 8.335-6.682 12.113-9.395l6.869-4.932 4.891 10.453c2.691 5.749 4.892 10.68 4.892 10.956 0 .277-1.592.731-3.538 1.009-2.682.383-3.756 1.857-4.441 6.096-.497 3.075-1.438 6.456-2.092 7.514-1.249 2.021-10.792 2.679-12.602.869m-49.961-1.161c1.176-1.132 57.545-42.956 59.584-44.211 1.258-.774 1.977-.315 1.977 1.263 0 2.779-44.924 36.625-54.233 40.859-5.698 2.592-8.758 3.464-7.328 2.089m354.772-2.411c-7.593-3.448-53.558-37.584-53.558-39.776 0-.809.712-1.468 1.582-1.464 1.618.008 59.32 42.449 59.32 43.632 0 .929-.1.897-7.344-2.392M61.707 245.549c.004-1.598 1.427-5.236 3.164-8.084 1.737-2.849 3.158-5.399 3.158-5.667 0-.269-2.892-2.813-6.428-5.653-5.82-4.678-6.679-4.939-9.095-2.761-1.468 1.322-4.538 2.871-6.824 3.441-3.417.852-4.754.196-7.525-3.697l-3.37-4.733 4.106-4.88L43 208.634h34.661c19.063 0 34.634.534 34.602 1.186-.05 1.019-8.025 7.138-44.502 34.147-5.304 3.928-6.059 4.125-6.054 1.582m123.038.173c-2.363-1.282-6.063-5.347-8.222-9.032-15.435-26.343-9.733-78.592 9.582-87.803 5.264-2.51 5.823-2.487 11.355.475 8.341 4.466 15.662 19.608 17.375 35.939 2.755 26.251-4.228 52.613-15.806 59.672-6.172 3.763-8.505 3.885-14.284.749m83.702-.285c-5.605-3.53-13.216-18.864-15.521-31.266-3.455-18.599 1.419-49.172 9.34-58.578 8.593-10.204 15.754-11.003 24.072-2.686 17.188 17.188 17.831 70.316 1.068 88.299-6.137 6.585-12.845 8.082-18.959 4.231m78.243-7.745c2.755-5.977 5.12-11.035 5.257-11.24s5.716 3.68 12.4 8.635c14.586 10.814 13.951 11.827-8.028 12.814l-14.638.658zm27.432-12.62c-24.195-18.054-25.406-16.438 12.314-16.438 18.022 0 32.768.591 32.768 1.312 0 3.922-25.212 27.712-28.661 27.045-.332-.064-7.722-5.428-16.421-11.919m-363.04-22.765c-2.176-.697 19.714-1.338 48.642-1.425 34.115-.102 52.597.399 52.597 1.425 0 1.913-95.266 1.913-101.239 0m344.847 0c0-1.027 18.462-1.517 52.597-1.395 28.928.103 50.462.73 47.852 1.395-7.366 1.874-100.449 1.874-100.449 0M38.99 193.624c-.706-1.841-1.802-2.014-5.018-.791-7.286 2.77-11.752 1.941-13.438-2.493-2.543-6.689-1.843-8.38 4.891-11.816 5.976-3.049 6.362-3.642 5.418-8.337-1.856-9.239-2.469-10.45-4.827-9.545-1.267.486-4.789.417-7.828-.153-5.159-.968-5.525-1.434-5.525-7.038 0-4.897.742-6.34 4.03-7.838 2.216-1.009 5.419-1.836 7.118-1.836 2.035 0 3.089-1.08 3.089-3.163 0-1.74.384-3.164.854-3.164 2.456 0 83.854 54.326 84.288 56.255.78 3.472-71.72 3.391-73.052-.081m317.213-.217c.284-1.447 19.025-14.656 41.645-29.351l41.129-26.719.483 8.103c.581 9.748-3.049 28.263-7.976 40.685l-3.595 9.063-36.102.426c-32.958.388-36.057.196-35.584-2.207M61.554 153.173C31.6 133.692 8.406 117.525 5.698 114.239c-4.55-5.52-4.395-5.466 8.68 2.975 67.181 43.37 99.525 65.156 99.525 67.038 0 1.23-.253 2.236-.562 2.236s-23.613-14.992-51.787-33.315m292.275 31.083c-.518-1.349 17.763-14.107 52.459-36.609 66.225-42.951 62.542-40.744 55.626-33.322-4.73 5.076-27.466 20.412-94.378 63.658-9.065 5.859-13.149 7.728-13.707 6.273M64.771 144.469c-27.354-17.728-49.965-33.322-50.246-34.654-.409-1.936 1.188-2.421 7.978-2.421h8.489l1.694-6.346c1.69-6.333 1.68-6.355-4.418-9.783-6.485-3.644-7.024-4.996-4.571-11.45 1.683-4.425 6.152-5.264 13.384-2.515 3.657 1.391 4.435.96 7.861-4.35 3.621-5.612 3.668-6.006.987-8.266-1.548-1.305-3.982-4.221-5.408-6.48-2.45-3.88-2.411-4.341.708-8.305 4.056-5.157 5.595-5.208 12.633-.426l5.55 3.771 4.309-3.435 4.309-3.436-3.164-6.207c-4.157-8.153-4.033-9.088 1.655-12.448 4.409-2.605 5.141-2.637 8.58-.383 2.069 1.355 4.219 3.906 4.778 5.669 1.176 3.704 1.77 3.808 8.429 1.487 4.668-1.628 4.889-2.072 4.123-8.305-1.01-8.212.441-10.406 7.655-11.577 5.677-.921 5.711-.892 7.947 6.779 1.236 4.237 2.706 7.526 3.267 7.308.562-.217 3.456-.395 6.432-.395 4.608 0 5.558-.646 6.402-4.35 1.813-7.955 4.615-10.213 11.154-8.986l5.864 1.1-.691 8.331c-.681 8.208-.61 8.369 4.841 10.968 5.223 2.491 5.62 2.481 7.11-.181.867-1.551 3.241-4.483 5.273-6.516 3.622-3.621 3.791-3.639 8.431-.899 5.532 3.268 5.995 7.147 1.693 14.201l-3.029 4.969 4.523 4.334c3.986 3.818 4.802 4.056 6.856 2.002 1.282-1.282 4.523-3.239 7.201-4.349 4.46-1.847 5.134-1.701 7.992 1.73 4.215 5.06 4.021 6.686-1.553 13.035-4.29 4.886-4.585 5.869-2.882 9.607 1.307 2.868 2.672 3.844 4.384 3.137 1.367-.564 5.414-1.385 8.991-1.824 6.191-.759 6.592-.548 8.305 4.364 2.341 6.717 1.315 7.846-13.741 15.121-37.494 18.118-64.87 44.522-76.933 74.201l-3.416 8.406zm286.991 29.714c-2.948-9.234-12.714-26.335-20.074-35.151-14.75-17.668-37.297-35.257-54.047-42.162-8.365-3.448-8.351-3.674 1.32-21.084 18.052-32.497 51.911-51.197 83.157-45.926 31.863 5.374 58.352 30.186 70.812 66.327 8.71 25.264 11.965 20.677-37.522 52.881-34.982 22.764-42.936 27.341-43.646 25.115"/>
</svg>
