<?xml version="1.0" encoding="UTF-8" standalone="no"?> <svg width="16" height="16" viewBox="0 0 86.698662 86.698662" version="1.1" xml:space="preserve" xmlns="http://www.w3.org/2000/svg" xmlns:svg="http://www.w3.org/2000/svg"><defs id="defs1" /><g id="layer1" transform="translate(-48.34647,-119.81525)"><path style="fill:#fff" d="m 76.879135,203.97563 c -2.706249,-0.0372 -4.504865,-0.0957 -4.741333,-0.15409 -1.716159,-0.42411 -2.576683,-0.79394 -3.683,-1.58286 -1.461832,-1.04244 -2.590002,-2.49443 -3.225375,-4.15117 -0.234526,-0.61153 -0.277964,-0.77948 -0.514061,-1.9876 -0.129569,-0.66301 -0.140641,-3.25577 -0.140641,-32.93533 0,-34.44587 -0.02289,-32.25271 0.354741,-33.99367 0.214695,-0.98979 0.856434,-2.26105 1.672467,-3.31309 1.444288,-1.86198 3.38926,-2.9649 6.043869,-3.42724 0.937779,-0.16332 36.960238,-0.16518 38.015328,-0.002 3.13159,0.48446 5.62408,2.22312 6.99974,4.88272 0.5739,1.10954 0.89144,2.20574 1.03628,3.57739 0.12962,1.22764 0.12962,63.32405 0,64.55169 -0.14484,1.37165 -0.46238,2.46785 -1.03628,3.5774 -1.33543,2.58183 -3.78629,4.34235 -6.73134,4.83531 -0.61644,0.10318 -3.05403,0.12765 -15.212063,0.15266 -7.962899,0.0164 -16.440149,0.003 -18.838332,-0.0302 z M 108.6222,156.889 c 1.80445,-0.30731 3.29697,-1.70251 3.7687,-3.52297 0.19547,-0.75435 0.19929,-11.07186 0.004,-11.83716 -0.3445,-1.3527 -1.24838,-2.46532 -2.49615,-3.07262 -0.43189,-0.2102 -0.93973,-0.38441 -1.27,-0.43566 -0.75571,-0.11727 -33.110952,-0.11727 -33.866662,0 -0.330269,0.0513 -0.838109,0.22546 -1.27,0.43566 -1.247766,0.6073 -2.151647,1.71992 -2.49615,3.07262 -0.194907,0.7653 -0.191083,11.08281 0.0044,11.83716 0.459817,1.77449 1.889863,3.15146 3.634763,3.49986 0.706249,0.14102 33.164832,0.16309 33.986732,0.0231 z" id="path1" /></g></svg>