<svg width="16" height="16" viewBox="0 0 86.699 86.699" xml:space="preserve" xmlns="http://www.w3.org/2000/svg">
  <path style="fill:#fff" d="M76.88 203.976c-2.707-.038-4.506-.096-4.742-.154-1.716-.425-2.577-.794-3.683-1.583a9.14 9.14 0 0 1-3.226-4.151c-.234-.612-.278-.78-.514-1.988-.13-.663-.14-3.256-.14-32.935 0-34.446-.023-32.253.354-33.994.215-.99.857-2.261 1.673-3.313 1.444-1.862 3.39-2.965 6.044-3.427.938-.164 36.96-.166 38.015-.002 3.132.484 5.624 2.223 7 4.882.574 1.11.891 2.206 1.036 3.578.13 1.227.13 63.324 0 64.551-.145 1.372-.462 2.468-1.036 3.578-1.336 2.582-3.786 4.342-6.731 4.835-.617.103-3.055.128-15.213.153-7.962.016-16.44.003-18.838-.03m31.742-47.087c1.805-.307 3.297-1.703 3.769-3.523.195-.754.2-11.072.004-11.837a4.68 4.68 0 0 0-2.496-3.073c-.432-.21-.94-.384-1.27-.435-.756-.118-33.111-.118-33.867 0-.33.05-.838.225-1.27.435a4.68 4.68 0 0 0-2.496 3.073c-.195.765-.191 11.083.004 11.837.46 1.775 1.89 3.151 3.635 3.5.706.14 33.165.163 33.987.023" transform="translate(-48.346 -119.815)"/>
</svg>
