<?xml version="1.0" encoding="UTF-8" standalone="no"?>
<svg
   width="16"
   height="16"
   viewBox="0 0 43.349331 43.349331"
   xml:space="preserve"
   xmlns="http://www.w3.org/2000/svg"
   xmlns:svg="http://www.w3.org/2000/svg"><g
     transform="translate(-130.47659,-141.60144)"><path
       style="fill:#fff;" d="m 134.07287,180.69824 c -1.18657,-0.29664 -1.96256,-1.28557 -1.96769,-2.50765 -0.006,-1.36696 0.97726,-2.39596 2.37275,-2.48378 1.47561,-0.0929 2.57058,0.88352 2.65947,2.37146 0.20117,1.58939 -1.51278,3.00789 -3.06453,2.61997 z m 35.40517,-8.5e-4 c -0.83619,-0.16714 -1.43532,-0.62945 -1.81487,-1.40044 -0.52751,-1.07153 -0.26413,-2.65465 1.12886,-3.35075 0.92691,-0.46319 2.06118,-0.32475 2.8213,0.34433 1.07685,0.94788 1.15701,2.55239 0.18146,3.63221 -0.55917,0.61894 -1.5082,0.93626 -2.31675,0.77465 z m -36.92919,-5.6015 c -0.63983,-0.0442 -0.78821,-0.0855 -1.105,-0.3079 -0.50574,-0.35508 -0.78715,-0.88673 -0.78437,-1.48186 0.002,-0.5282 0.1494,-0.86141 0.55451,-1.25748 0.53534,-0.52339 0.48281,-0.51848 5.94143,-0.5572 l 4.97249,-0.0352 c 8.14436,-2.53261 16.24972,-5.19077 24.41743,-7.6479 0.10588,-0.0233 0.21157,-0.0733 0.23487,-0.11096 0.0233,-0.0376 -0.9622,-0.76657 -2.19,-1.61972 -1.22781,-0.85316 -2.40449,-1.67156 -2.61486,-1.81868 -1.463,-1.02308 -4.51467,-3.14427 -5.18499,-3.60404 -0.74591,-0.51163 -2.63193,-1.82539 -4.58998,-3.1973 -0.44412,-0.31117 -1.34418,-0.93547 -2.00013,-1.38733 -0.65595,-0.45185 -2.11939,-1.47179 -3.25211,-2.26654 -1.13271,-0.79474 -2.1478,-1.49869 -2.25574,-1.56432 -0.46215,-0.28095 -0.907,0.16551 -0.907,0.91029 0,0.30075 0.11281,0.7166 0.38639,1.42446 0.40641,1.05154 0.40604,1.07945 -0.016,1.19223 -0.43639,0.11663 -1.00682,-0.48519 -1.40865,-1.48621 -0.0255,-0.0636 -0.53882,-1.70156 0.0867,-3.02644 0.46674,-0.98841 1.06669,-1.4875 1.7881,-1.4875 0.74664,0 1.5715,0.42642 3.75341,1.94035 2.8367,1.96826 2.56788,1.78142 5.52499,3.83976 2.40441,1.67363 2.83961,1.97637 3.61691,2.51613 0.62268,0.43238 7.13429,4.95795 8.43413,5.86172 0.40778,0.28352 1.50641,1.04443 2.44141,1.69091 0.93499,0.64648 1.82505,1.29291 1.97789,1.43651 0.47526,0.44655 0.53941,1.06073 0.18413,1.76283 -0.21446,0.42379 -0.38067,0.51245 -1.78191,0.9504 -0.67657,0.21147 -2.51149,0.78621 -4.0776,1.27722 -4.58909,1.53154 -9.27263,2.78267 -13.8473,4.35811 -0.0485,0.0485 20.48434,0.0615 21.28477,0.16905 1.04864,0.1409 1.76417,1.21621 1.48139,2.22624 -0.13645,0.48731 -0.68743,1.06851 -1.15403,1.21729 -0.57206,0.18226 -39.38688,0.1194 -39.91132,0.0831 z"/></g></svg>
