<svg width="16" height="16" viewBox="0 0 43.349 43.349" xml:space="preserve" xmlns="http://www.w3.org/2000/svg">
  <path style="fill:#fff" d="M134.073 180.698c-1.187-.296-1.963-1.285-1.968-2.507-.006-1.367.977-2.396 2.373-2.484 1.476-.093 2.57.883 2.66 2.371.2 1.59-1.513 3.008-3.065 2.62m35.405 0c-.836-.168-1.435-.63-1.815-1.401-.527-1.072-.264-2.655 1.129-3.35.927-.464 2.061-.326 2.821.344 1.077.947 1.157 2.552.182 3.632-.56.619-1.508.936-2.317.774m-36.93-5.602c-.639-.044-.787-.086-1.104-.308-.506-.355-.787-.887-.785-1.482.002-.528.15-.861.555-1.257.535-.524.483-.519 5.941-.558l4.973-.035c8.144-2.532 16.25-5.19 24.417-7.648.106-.023.212-.073.235-.11.024-.038-.962-.767-2.19-1.62l-2.615-1.819a1296 1296 0 0 0-5.185-3.604 767 767 0 0 1-4.59-3.197c-.444-.312-1.344-.936-2-1.388s-2.12-1.471-3.252-2.266a146 146 0 0 0-2.256-1.565c-.462-.28-.907.166-.907.91 0 .302.113.717.387 1.425.406 1.052.406 1.08-.016 1.192-.437.117-1.007-.485-1.409-1.486-.025-.063-.539-1.701.087-3.026.467-.989 1.067-1.488 1.788-1.488.747 0 1.571.427 3.753 1.94 2.837 1.969 2.568 1.782 5.525 3.84l3.617 2.517c.623.432 7.135 4.957 8.434 5.861.408.284 1.507 1.045 2.442 1.691s1.825 1.293 1.978 1.437c.475.446.54 1.06.184 1.763-.215.423-.38.512-1.782.95l-4.078 1.277c-4.589 1.532-9.272 2.783-13.847 4.358-.048.049 20.484.062 21.285.17 1.048.14 1.764 1.215 1.481 2.226-.136.487-.687 1.068-1.154 1.217-.572.182-39.387.12-39.911.083" transform="translate(-130.477 -141.601)"/>
</svg>
