<svg width="16" height="16" viewBox="0 0 190.5 190.5" xml:space="preserve" xmlns="http://www.w3.org/2000/svg">
  <path d="M185.56 211.49c-.059-.153-.107-24.363-.107-53.799v-53.52h-1.681c-1.312 0-1.703-.057-1.78-.258-.055-.142-.246-.304-.424-.36-.179-.057-.501-.468-.716-.912-.374-.773-.387-.945-.277-3.851.088-2.334.064-3.084-.105-3.22-.121-.096-.867-.211-1.658-.255-.896-.05-1.542-.174-1.714-.33-.582-.528-.808-.692-.957-.692-.14 0-.454-.3-1.462-1.396-.186-.202-.339-.47-.339-.593s-.158-.34-.352-.48c-.31-.223-.353-.457-.353-1.894 0-1.804.068-2.001 1.15-3.31.24-.29.438-.608.44-.705.002-.188.927-.839 1.93-1.36.46-.237 1.019-.316 2.25-.316.953 0 1.638.072 1.638.173 0 .095.212.226.47.291.73.183 1.902 1.239 2.36 2.126.142.273.356.602.478.73s.22.346.22.485.08.252.177.252.176.392.176.872-.08.92-.176.98c-.097.06-.177.5-.177.977v.869l1.5-.011 1.499-.011v-2.21l-1.41-1.835c-.775-1.01-1.41-1.935-1.41-2.056-.002-.122-.082-.22-.179-.22s-.176-.12-.176-.264c0-.324-2.332-2.735-2.644-2.735-.125 0-.728.092-1.343.205-1.27.234-3.418-.04-3.786-.484-.114-.138-.317-.25-.45-.25-.135 0-.244-.12-.244-.265s-.067-.265-.15-.265c-.234 0-.908-.637-.908-.858 0-.11-.068-.2-.15-.2s-.297-.357-.477-.794c-.18-.436-.39-.794-.468-.794-.077 0-.14-.714-.14-1.587s.07-1.588.156-1.588.297-.297.469-.661.459-.765.637-.892c.18-.127.326-.385.326-.573s.075-.343.168-.343c.162 0 1.28-.686 1.72-1.056.117-.098.41-.179.651-.179s.487-.08.547-.176c.143-.23 1.852-.23 1.852 0 0 .097.246.176.546.176s.747.159.994.353.548.353.67.353.667.452 1.211 1.005c.924.94.99 1.06.99 1.852 0 .466.079.847.176.847s.176.39.176.866v.867l5.203-.057.095-8.202h-1.326c-.767 0-1.326-.075-1.326-.177a.18.18 0 0 0-.185-.176c-.101 0-.375-.179-.609-.397-.623-.582-.83-.729-1.367-.968-.267-.118-.485-.296-.485-.395s-.077-.18-.17-.18-.404-.219-.689-.486c-1.044-.977-1.88-1.628-2.096-1.63-.121 0-.22-.082-.22-.182s-.199-.256-.441-.348c-.243-.093-.441-.25-.441-.349 0-.1-.1-.18-.223-.18-.122 0-.372-.199-.554-.441-.182-.243-.427-.441-.545-.441-.117 0-.448-.219-.735-.485-.701-.653-1.591-1.28-1.817-1.28-.1 0-.183-.088-.183-.197 0-.253-1.077-1.207-1.367-1.21-.17-.003-.22-1.057-.22-4.678v-4.674h-3.705v9.26l-.529.353c-.29.194-.528.413-.529.485s-.083.133-.184.133c-.208 0-1.285.725-1.374.926-.033.072-.168.132-.3.132s-.437.194-.674.431a3.9 3.9 0 0 1-1.022.685c-.325.14-.766.422-.98.627-.215.205-.439.374-.498.374-.06 0-.228.119-.373.264s-.418.265-.605.265-.34.119-.34.264c0 .149-.157.265-.358.265-.197 0-.404.119-.46.264s-.252.265-.436.265-.334.12-.334.265-.146.264-.326.264c-.324 0-1.763.938-2.004 1.307-.202.308-1.987.221-2.321-.112-.158-.158-.287-.344-.287-.412 0-.069-.199-.309-.441-.534l-.441-.408V47.739l.607-.58c.335-.318.728-.678.875-.8.211-.174 7.83-.22 36.787-.22 22.128 0 36.52.064 36.52.163 0 .09.238.215.53.278.29.064.528.23.528.367 0 .138.108.25.24.25.163 0 .275.345.353 1.085.148 1.418.146 12.391-.003 15.839l-.117 2.691-.608.644c-.556.59-.685.642-1.526.623-.728-.018-1.021-.118-1.418-.486-.275-.254-.647-.463-.827-.463s-.327-.119-.327-.264-.149-.265-.331-.265-.43-.119-.55-.265-.321-.264-.445-.264-.27-.12-.325-.265a.44.44 0 0 0-.372-.264c-.148 0-.27-.072-.27-.16 0-.087-.237-.241-.526-.342-.289-.1-.744-.386-1.012-.634-.268-.249-.587-.452-.71-.452s-.221-.07-.221-.155-.239-.253-.53-.374c-.29-.12-.529-.289-.529-.374s-.082-.155-.184-.155c-.1 0-.28-.081-.396-.18-.88-.742-1.11-.878-1.475-.878-.228 0-.414-.086-.414-.19 0-.22-.437-.69-.65-.698-.079-.003-.321-.154-.538-.335-.386-.322-.395-.414-.44-4.889l-.048-4.56-3.616-.1v4.68c0 3.421-.055 4.68-.204 4.68-.112 0-.505.318-.874.706-.37.388-.794.706-.943.706s-.272.113-.272.252c0 .14-.172.308-.382.374-.21.067-.57.31-.802.541-.23.231-.49.42-.574.42-.085 0-.393.238-.684.53-.291.29-.615.528-.72.528s-.19.082-.19.181c0 .1-.198.256-.44.349-.243.092-.441.249-.441.348 0 .1-.103.18-.23.18s-.423.236-.66.522c-.239.287-.52.526-.627.53s-.583.363-1.058.797-.96.792-1.076.794-.408.182-.648.4c-1.386 1.262-1.617 1.367-3.013 1.367h-1.161l.094 8.203 2.293.044c3.207.063 3.014.16 3.152-1.585.172-2.172.18-2.205.727-2.635a18 18 0 0 0 .956-.815c.533-.494 1.79-1.095 2.289-1.095.193 0 .4-.08.46-.176.06-.097.497-.177.971-.177s.91.08.97.177.266.176.457.176c.533 0 1.964.785 2.58 1.415.572.585 1.111 1.576 1.443 2.655.243.786.253 2.047.018 2.192-.097.06-.176.277-.176.483 0 .785-.475 1.658-1.39 2.555-.523.512-1.059.93-1.191.93s-.241.073-.241.161-.552.259-1.226.38c-.989.176-1.485.174-2.572-.012l-1.348-.23-.733.777a16 16 0 0 0-1.352 1.695c-.34.505-1.313 1.83-2.162 2.946-1.511 1.985-1.544 2.048-1.544 3.006v.98h1.57c1.3 0 1.587-.05 1.68-.295.063-.162.031-.376-.069-.476s-.182-.569-.182-1.04c0-.473-.08-1.008-.177-1.19q-.177-.33 0-.44c.098-.06.177-.262.177-.45s.074-.343.165-.343.212-.15.27-.335c.18-.564 2.267-2.615 2.784-2.735.267-.061.485-.19.485-.285 0-.101.702-.173 1.689-.173 1.265 0 1.754.066 1.952.265.146.145.417.264.603.264.618 0 2.46 1.785 2.46 2.383 0 .145.078.263.175.263s.177.222.177.494.086.58.19.685c.255.254.262 2.143.01 2.396-.11.11-.2.382-.2.605s-.08.406-.177.406-.176.159-.176.353-.08.353-.176.353c-.097 0-.177.1-.177.221 0 .122-.289.46-.642.75s-.73.608-.837.707c-.712.649-1.326.862-2.691.934-1.277.067-1.457.12-1.616.47-.112.244-.142 1.463-.081 3.222.087 2.512.06 2.92-.237 3.648-.22.54-.467.854-.724.919-.214.055-.482.21-.594.347-.149.178-.647.247-1.793.247h-1.587l.07 53.8.072 53.798h-9.468c-8.47 0-9.479-.03-9.574-.279zm10.223-145.66c.058-.233.08-.61.048-.838-.052-.365-.154-.415-.853-.415-.704 0-.8.048-.854.424-.102.724.307 1.252.969 1.252.47 0 .605-.083.69-.423m-33.716-4.623c.178-.068.279-.322.279-.702 0-.488-.08-.615-.441-.706-.242-.06-.64-.06-.882 0-.362.091-.44.218-.44.71 0 .33.098.64.22.688.319.13.941.134 1.264.01m23.989 0c.33-.126.374-.962.067-1.269-.228-.228-.823-.277-1.273-.104-.188.072-.279.33-.279.793 0 .665.02.687.603.687.332 0 .729-.048.882-.107m9.716-.687c0-.67-.03-.708-.585-.761-.687-.066-1.09.21-1.09.748 0 .567.36.83 1.057.771.595-.05.618-.079.618-.758m9.51.687c.348-.133.365-.891.027-1.228-.265-.266-.765-.324-1.232-.145-.189.072-.28.33-.28.794 0 .664.02.686.603.686.332 0 .729-.048.882-.107m24.062-.047c.314-.199.195-1.085-.176-1.318q-.295-.183-.97-.018c-.566.14-.685.25-.734.677-.07.607.187.808 1.028.808.34 0 .723-.067.852-.149m-66.998-5.286c0-.55-.082-.714-.44-.878-.744-.339-1.323.046-1.323.878v.678h1.763zm23.71.57c.177-.067.28-.32.28-.688 0-.49-.085-.61-.54-.77-.787-.273-1.225.05-1.225.903 0 .637.024.663.603.663.332 0 .729-.048.882-.107m9.804-.592c0-.884-.46-1.208-1.25-.881-.416.172-.513.32-.513.779 0 .734.084.802 1 .802h.763zm9.49.488c.117-.116.212-.426.212-.688 0-.373-.117-.518-.54-.665-.786-.274-1.224.048-1.224.902 0 .65.013.663.67.663.369 0 .766-.096.882-.212m24.201-.458c0-.613-.056-.69-.653-.907-.476-.172-.672-.182-.72-.035-.037.11-.22.2-.405.2-.266 0-.339.127-.339.589 0 .323.053.64.118.705s.541.118 1.058.118h.941zm-67.413-4.069c.15-.095.212-.422.176-.923-.052-.734-.087-.78-.63-.832-.34-.033-.682.052-.837.208-.317.316-.347 1.193-.052 1.488.243.243 1 .276 1.343.06m23.952-.156c.276-.364.323-1.103.07-1.103-.098 0-.177-.123-.177-.275 0-.21-.156-.262-.662-.22-.646.053-.662.073-.717.83-.035.502.027.829.177.924.392.249 1.063.169 1.31-.156m9.664.03c.176-.46.12-1.224-.105-1.45-.289-.289-.993-.267-1.3.04s-.33 1.186-.04 1.477c.313.313 1.317.266 1.445-.067m9.563-.03c.276-.364.322-1.103.069-1.103-.097 0-.177-.123-.177-.275 0-.21-.156-.262-.661-.22-.646.053-.663.073-.717.83-.036.502.026.829.176.924.392.249 1.063.169 1.31-.156m23.912.017c.385-.35.42-1.047.07-1.397-.138-.138-.501-.252-.806-.252s-.668.114-.807.252c-.89.89.606 2.244 1.543 1.397" style="fill:#fff" transform="translate(-99.726 -30.265)"/>
</svg>
