<svg width="16" height="16" viewBox="0 0 190.5 190.5" xml:space="preserve" xmlns="http://www.w3.org/2000/svg">
  <path d="M33.866 178.57c-.545-.108-1.787-.487-2.764-.842-1.099-.4-2.804-1.637-3.777-2.741-.474-.538-.863-1.045-.865-1.127-.001-.082-.158-.368-.348-.635-.518-.727-1.248-3.12-1.348-4.42-.049-.63-.278-2.575-.509-4.32s-.669-5.12-.973-7.497l-.97-7.585c-.23-1.795-.627-4.93-.88-6.967a5042 5042 0 0 0-1.765-14.023l-.967-7.585c-.303-2.377-.745-5.71-.983-7.409s-.431-3.365-.431-3.704-.194-2.005-.43-3.703a572 572 0 0 1-.893-6.792 991 991 0 0 0-.718-5.644c-.332-2.51-.322-4.473.029-5.81.275-1.049.973-2.644 1.468-3.355.477-.687 41.206-41.217 42.083-41.88 1.945-1.467 4.595-2.186 7.144-1.937 2.205.215 4.372.16 11.024-.277 6.288-.414 10.076-.65 28.575-1.775 4.075-.248 11.06-.702 15.522-1.01 4.535-.312 9.625-.563 11.54-.568l3.426-.01.499-.498c.274-.274.498-.544.498-.6s.417-.518.926-1.028c1.22-1.219 2.752-2.867 6.39-6.87 1.146-1.26 2.43-2.632 2.852-3.048.423-.416.768-.814.768-.886s.436-.525.97-1.008.968-.941.97-1.018c0-.077.417-.56.927-1.071 1.04-1.046 1.49-1.53 4.447-4.786 1.146-1.262 2.354-2.551 2.686-2.867l.603-.573 18.413.011.97.854v44.482l-.432.433-.433.433h-36.87l-1.197.652c-.658.358-1.236.704-1.285.768s-.445.286-.882.49-.913.447-1.058.536c-1.473.897-3.975 1.611-5.645 1.611-1.232 0-3.584-.563-4.674-1.118-1.407-.717-1.952-1.101-2.975-2.1-.472-.462-.964-.839-1.093-.839-.13 0-.446-.276-.703-.612-.854-1.12-2.106-.959-3.872.5-1.286 1.062-1.279 1.056-1.715 1.385-.484.364-2.847 2.284-3.55 2.884-.278.236-.553.43-.612.43-.06 0-.27.156-.467.347-.738.716-1.647 1.416-1.837 1.416-.109 0-.198.07-.198.155s-.456.5-1.014.922-1.499 1.186-2.092 1.698c-.593.51-1.125.93-1.182.93-.058 0-.292.178-.52.396-.485.464-3.388 2.785-3.805 3.043-.157.097-.367.267-.466.378s-.856.736-1.68 1.39l-1.546 1.227c-.025.02.082.386.237.814.203.556.286 1.429.293 3.07.01 2.174-.019 2.365-.544 3.671-.971 2.411-1.308 2.806-6.343 7.427a637 637 0 0 0-3.764 3.476c-.45.424-1.436 1.327-2.19 2.007a82 82 0 0 0-2.09 1.946c-.398.392-1.714 1.612-2.927 2.713s-2.498 2.289-2.855 2.64a62 62 0 0 1-1.74 1.608c-2.775 2.47-5.653 5.302-6.199 6.098-.261.381-.72 1.309-1.02 2.061-.507 1.27-.546 1.524-.546 3.55 0 1.815.064 2.34.378 3.13.207.521.477 1.305.6 1.742.275.976.717 2.229 1.27 3.592.23.568.487 1.322.572 1.675.192.802.815 2.614 1.362 3.96.23.565.417 1.14.417 1.278s.186.748.414 1.355c.676 1.804 1.03 2.821 1.272 3.662a44 44 0 0 0 1.46 4.145c.244.582.5 1.336.57 1.676.123.594.498 1.725 1.318 3.969.708 1.939 1.007 2.815 1.235 3.616.124.436.362 1.11.527 1.499.166.388.402 1.063.524 1.5.256.913.84 2.58 1.483 4.233.406 1.043.446 1.377.44 3.704-.007 2.397-.04 2.635-.511 3.792-.648 1.59-2.104 3.534-3.338 4.457-.94.703-3.085 1.805-3.51 1.804-.115 0-1.121.194-2.237.432s-3.1.64-4.41.893a554 554 0 0 0-9.172 1.868c-1.018.217-2.249.447-2.734.511-.833.11-1.784.3-6.614 1.333-1.116.238-2.227.434-2.47.436-.242.002-1.195.198-2.117.437s-1.886.435-2.145.437c-.258.002-1.33.209-2.38.459-1.889.45-3.966.66-4.823.49zm3.432-5.89c1.924-.924 2.918-2.515 2.918-4.668 0-1.54-.373-2.514-1.347-3.517-1.027-1.058-2.13-1.51-3.68-1.51-1.072 0-1.505.086-2.2.438-1.07.542-1.98 1.462-2.461 2.484-.422.898-.508 3.082-.153 3.905.645 1.495 1.563 2.377 3.22 3.094.972.42 2.56.324 3.703-.226m35.101-6.879c1.924-.924 2.918-2.515 2.918-4.668 0-1.54-.373-2.514-1.347-3.517-1.027-1.058-2.13-1.51-3.68-1.51-1.072 0-1.505.086-2.2.438-1.07.542-1.98 1.462-2.461 2.484-.422.898-.508 3.082-.153 3.904.645 1.496 1.563 2.378 3.22 3.095.972.42 2.56.324 3.703-.226m-11.642-57.856c1.924-.924 2.918-2.515 2.918-4.668 0-1.54-.373-2.514-1.347-3.517-1.027-1.058-2.13-1.51-3.68-1.51-1.072 0-1.505.086-2.2.438-1.07.542-1.98 1.462-2.461 2.484-.422.898-.508 3.082-.153 3.904.645 1.496 1.563 2.378 3.22 3.095.972.42 2.56.324 3.703-.226M27.419 94.716c1.924-.924 2.918-2.515 2.918-4.668 0-2.113-1.027-3.77-2.873-4.639-1.137-.534-3.153-.542-4.27-.017-1.008.474-2.066 1.531-2.54 2.54-.427.909-.515 3.088-.158 3.916.645 1.495 1.563 2.377 3.22 3.094.972.42 2.56.324 3.703-.226m61.031-10.76c1.924-.924 2.918-2.515 2.918-4.668 0-2.11-.938-3.632-2.827-4.589-1.16-.587-3.144-.618-4.316-.067-1.008.474-2.066 1.531-2.54 2.54-.427.909-.515 3.088-.158 3.916.645 1.495 1.563 2.377 3.22 3.094.972.42 2.56.324 3.703-.226M67.283 55.557c1.924-.924 2.918-2.515 2.918-4.668 0-2.113-1.027-3.77-2.873-4.639-1.137-.534-3.153-.542-4.27-.017-1.008.474-2.066 1.531-2.54 2.54-.427.909-.515 3.088-.158 3.915.645 1.496 1.563 2.378 3.22 3.095.972.42 2.56.324 3.703-.226" fill="#fff"/>
</svg>
