<?xml version="1.0" encoding="UTF-8"?>
<svg width="16" height="16" version="1.1" viewBox="0 0 190.5 190.5" xml:space="preserve" xmlns="http://www.w3.org/2000/svg"><g transform="translate(26.525 -43.03)"><path d="m7.3413 221.6c-0.54502-0.10825-1.7873-0.48676-2.7645-0.84228-1.0987-0.39974-2.8037-1.637-3.7768-2.7407-0.47416-0.53779-0.86323-1.0449-0.8646-1.127-0.0013722-0.082-0.15815-0.36775-0.34839-0.63492-0.51802-0.72749-1.2478-3.12-1.348-4.4194-0.048641-0.63059-0.27769-2.5753-0.50899-4.3215-0.2313-1.7462-0.66905-5.1197-0.97276-7.4965-0.30371-2.3768-0.74061-5.79-0.97088-7.5847-0.23027-1.7948-0.62627-4.9301-0.87999-6.9674-0.63662-5.1119-1.2714-10.157-1.7645-14.023-0.2289-1.7948-0.66412-5.2079-0.96716-7.5847s-0.74516-5.7108-0.9825-7.4088c-0.23734-1.698-0.43153-3.3647-0.43153-3.7037 0-0.33904-0.19372-2.0057-0.4305-3.7037-0.23677-1.698-0.63814-4.7541-0.89192-6.7914-0.25379-2.0373-0.57692-4.5773-0.71808-5.6444-0.33211-2.5107-0.3225-4.473 0.02844-5.8093 0.27563-1.0495 0.97358-2.6446 1.4685-3.3561 0.47722-0.68608 41.206-41.217 42.083-41.879 1.9451-1.4675 4.5952-2.1863 7.1438-1.9377 2.2049 0.2151 4.3722 0.16058 11.024-0.27727 6.2884-0.41392 10.076-0.64913 28.575-1.7746 4.0746-0.2479 11.06-0.70224 15.522-1.0097 4.5352-0.31242 9.6249-0.56308 11.54-0.56833l3.4259-0.0094 0.49875-0.49864c0.27431-0.27425 0.49875-0.54418 0.49875-0.59984 0-0.05566 0.41672-0.51809 0.92604-1.0276 1.2187-1.2192 2.7515-2.8674 6.389-6.8697 1.1462-1.2612 2.4298-2.6332 2.8525-3.0489 0.42269-0.41569 0.76853-0.81425 0.76853-0.88569 0-0.07144 0.43591-0.52508 0.96868-1.0081s0.96933-0.94119 0.97014-1.0182c8e-4 -0.077 0.41818-0.55901 0.9275-1.0711 1.0399-1.0457 1.4894-1.5294 4.4475-4.7861 1.1456-1.2612 2.3542-2.551 2.686-2.8663l0.60315-0.57326 18.413 0.0112 0.97014 0.85388v22.241 22.241l-0.43295 0.43296-0.43296 0.43295h-18.435-18.435l-1.1967 0.65155c-0.65819 0.35835-1.2364 0.70426-1.2849 0.7687-0.0485 0.0644-0.44539 0.2852-0.88195 0.49059s-0.91281 0.44597-1.0583 0.53462c-1.4728 0.89722-3.9746 1.6115-5.6444 1.6115-1.2319 0-3.5842-0.56257-4.6743-1.1178-1.4074-0.71692-1.9519-1.1015-2.975-2.1007-0.47207-0.4611-0.96412-0.83837-1.0935-0.83837-0.12933 0-0.44542-0.27567-0.70241-0.61261-0.85424-1.12-2.1058-0.9583-3.8722 0.5002-1.286 1.0618-1.2785 1.0558-1.7154 1.3848-0.4833 0.36406-2.8468 2.2843-3.5503 2.8844-0.27676 0.2361-0.55178 0.42927-0.61116 0.42927-0.05937 0-0.26949 0.15664-0.46693 0.34808-0.73795 0.71553-1.6468 1.4158-1.8375 1.4158-0.10846 0-0.1972 0.0697-0.1972 0.15494 0 0.0852-0.45641 0.5003-1.0142 0.92241-0.55783 0.4221-1.4993 1.1858-2.0921 1.6971-0.59284 0.51132-1.125 0.92968-1.1826 0.92968-0.05759 0-0.29142 0.17859-0.51963 0.39687-0.48491 0.46383-3.3875 2.7847-3.8053 3.0427-0.15711 0.097-0.36686 0.26701-0.46611 0.37777-0.09925 0.11076-0.85514 0.73679-1.6798 1.3912s-1.52 1.2062-1.5453 1.2263c-0.02529 0.0201 0.08125 0.38625 0.23675 0.8137 0.20236 0.55624 0.28564 1.429 0.29297 3.0702 0.0097 2.1736-0.01867 2.3649-0.54446 3.671-0.97067 2.4112-1.308 2.8062-6.3428 7.4272-1.6198 1.4867-3.3137 3.0506-3.7642 3.4754-0.45051 0.42475-1.4357 1.3279-2.1893 2.007-0.75362 0.67909-1.6947 1.555-2.0913 1.9465-0.3966 0.39147-1.7133 1.6124-2.926 2.7132s-2.4976 2.2887-2.8555 2.6396c-0.35785 0.35098-1.1409 1.0747-1.7401 1.6083-2.7742 2.4703-5.6523 5.3017-6.1984 6.098-0.2614 0.38113-0.72064 1.3086-1.0205 2.061-0.50628 1.2702-0.54526 1.524-0.54526 3.5494 0 1.8154 0.0633 2.3404 0.37732 3.1299 0.20752 0.5217 0.4778 1.3057 0.60061 1.7423 0.27461 0.97619 0.7172 2.2289 1.269 3.5918 0.23028 0.56876 0.48788 1.3228 0.57245 1.6757 0.19219 0.80192 0.8156 2.6138 1.3626 3.9605 0.2292 0.56422 0.41672 1.1388 0.41672 1.277 0 0.1381 0.18632 0.74803 0.41405 1.3554 0.67641 1.804 1.0296 2.821 1.2717 3.6619 0.3462 1.2025 0.96717 2.9643 1.461 4.1451 0.24343 0.58208 0.49978 1.3362 0.56965 1.6757 0.12235 0.59452 0.49754 1.725 1.3172 3.9688 0.70833 1.939 1.0077 2.8153 1.2355 3.616 0.1242 0.43656 0.36146 1.1112 0.52723 1.4993 0.16577 0.38806 0.40144 1.0628 0.5237 1.4993 0.25576 0.91326 0.83993 2.5803 1.4834 4.2333 0.40602 1.043 0.44567 1.3775 0.43896 3.7042-0.0069 2.3976-0.03887 2.6349-0.51061 3.7924-0.64813 1.5902-2.1036 3.5335-3.3378 4.4565-0.94 0.70298-3.0849 1.8058-3.5102 1.8048-0.1145-2.7e-4 -1.121 0.19395-2.2367 0.43161s-3.1 0.6396-4.4097 0.89321c-2.6981 0.52248-6.4373 1.2838-9.1722 1.8676-1.0186 0.21744-2.249 0.44744-2.734 0.51111-0.83351 0.10941-1.7838 0.30086-6.6146 1.3327-1.1157 0.2383-2.2269 0.43464-2.4694 0.43631-0.24254 2e-3 -1.195 0.1983-2.1167 0.43694-0.92163 0.23865-1.8869 0.43549-2.1451 0.43744-0.25819 2e-3 -1.3297 0.20824-2.3812 0.45843-1.8881 0.44927-3.9647 0.66024-4.8222 0.48993zm3.4321-5.8895c1.9238-0.92471 2.9179-2.5152 2.9179-4.6686 0-1.5396-0.37326-2.5142-1.347-3.5167-1.0277-1.0582-2.1295-1.5104-3.6801-1.5104-1.0718 0-1.505 0.0863-2.1997 0.43835-1.0698 0.54213-1.9811 1.4616-2.4616 2.4838-0.42206 0.89789-0.50762 3.0824-0.15293 3.9046 0.64527 1.4957 1.563 2.3778 3.2198 3.0947 0.97194 0.42055 2.5604 0.32369 3.7037-0.22584zm35.101-6.8792c1.9238-0.92471 2.9179-2.5152 2.9179-4.6686 0-1.5396-0.37326-2.5141-1.347-3.5167-1.0277-1.0582-2.1295-1.5104-3.6801-1.5104-1.0718 0-1.505 0.0863-2.1997 0.43835-1.0698 0.54213-1.9811 1.4616-2.4616 2.4838-0.42206 0.89789-0.50762 3.0824-0.15294 3.9046 0.64527 1.4958 1.563 2.3778 3.2198 3.0947 0.97194 0.42055 2.5604 0.32369 3.7037-0.22583zm-11.642-57.856c1.9238-0.92471 2.9179-2.5152 2.9179-4.6686 0-1.5396-0.37326-2.5142-1.347-3.5167-1.0277-1.0582-2.1295-1.5104-3.6801-1.5104-1.0718 0-1.505 0.0863-2.1997 0.43835-1.0698 0.54213-1.9811 1.4616-2.4616 2.4838-0.42206 0.89789-0.50762 3.0824-0.15293 3.9046 0.64527 1.4958 1.563 2.3778 3.2198 3.0947 0.97194 0.42054 2.5604 0.32369 3.7037-0.22584zm-33.338-13.229c1.9238-0.92472 2.9179-2.5152 2.9179-4.6686 0-2.1129-1.0268-3.7704-2.8735-4.6384-1.1369-0.53442-3.1526-0.54275-4.2697-0.0176-1.0082 0.47393-2.066 1.5317-2.54 2.54-0.42727 0.90897-0.5153 3.088-0.15819 3.9158 0.64527 1.4958 1.563 2.3778 3.2198 3.0947 0.97194 0.42055 2.5604 0.32369 3.7037-0.22583zm61.031-10.76c1.9238-0.92471 2.9179-2.5152 2.9179-4.6686 0-2.1088-0.93817-3.6314-2.8274-4.5887-1.1592-0.58741-3.1435-0.61837-4.3158-0.0673-1.0082 0.47393-2.066 1.5317-2.54 2.54-0.42727 0.90898-0.5153 3.088-0.15819 3.9158 0.64527 1.4957 1.563 2.3778 3.2198 3.0947 0.97194 0.42054 2.5604 0.32369 3.7037-0.22584zm-21.167-28.399c1.9238-0.92471 2.9179-2.5152 2.9179-4.6686 0-2.1129-1.0268-3.7704-2.8735-4.6384-1.1369-0.53443-3.1526-0.54276-4.2697-0.01764-1.0082 0.47393-2.066 1.5317-2.54 2.54-0.42727 0.90898-0.5153 3.088-0.15819 3.9158 0.64527 1.4957 1.563 2.3778 3.2198 3.0947 0.97194 0.42055 2.5604 0.32369 3.7037-0.22583zm66.285-4.7398c0.67133-0.25524 0.90791-0.69099 0.91755-1.69 0.0102-1.0581-0.25659-1.4712-1.2565-1.9457-0.76779-0.36434-1.395-0.15202-2.1749 0.73622-0.63666 0.72511-0.68637 1.4597-0.14978 2.2132 0.65469 0.91943 1.4866 1.1338 2.6636 0.68629z" style="fill: #fff"/></g></svg>