<?xml version="1.0" encoding="UTF-8" standalone="no"?>
<svg
   width="16"
   height="16"
   viewBox="0 0 43.349331 43.349331"
   version="1.1"
   xml:space="preserve"
   xmlns="http://www.w3.org/2000/svg"
   xmlns:svg="http://www.w3.org/2000/svg"><g
     transform="translate(-83.361923,-126.82533)"><path
       style="fill:#fff"
       d="m 103.13159,168.39531 c -2.65294,-0.29537 -4.962417,-0.96765 -7.174823,-2.08857 -3.892679,-1.97224 -6.997053,-5.11704 -8.914751,-9.03084 -2.745746,-5.60375 -2.745746,-12.03272 0,-17.63647 0.993006,-2.02661 2.193602,-3.71097 3.76597,-5.28341 3.196281,-3.19642 7.140743,-5.14223 11.688604,-5.76599 1.03649,-0.14216 3.95884,-0.14216 4.99533,0 2.17911,0.29887 4.46047,0.99031 6.33571,1.92021 4.02538,1.99613 7.17848,5.15402 9.11535,9.12919 0.95937,1.96899 1.53372,3.80831 1.87328,5.99908 0.18674,1.20485 0.21212,4.23464 0.0449,5.35915 -0.56757,3.81625 -1.98141,7.12365 -4.29425,10.04549 -0.6246,0.78907 -2.08198,2.24707 -2.94244,2.94369 -2.77074,2.24318 -6.23727,3.75998 -9.79393,4.28538 -1.06695,0.15761 -3.75616,0.22806 -4.69893,0.12309 z m 4.318,-5.36921 c 5.0764,-0.86654 9.42792,-4.38546 11.26099,-9.10636 1.4083,-3.62694 1.4083,-7.29721 0,-10.92415 -0.68993,-1.77683 -1.65092,-3.26019 -3.08223,-4.75761 -2.25693,-2.36118 -5.15706,-3.8738 -8.43276,-4.39826 -0.87355,-0.13987 -3.52912,-0.13987 -4.40267,0 -3.288739,0.52655 -6.165505,2.02631 -8.429008,4.39434 -2.268224,2.37298 -3.598376,5.13778 -4.014359,8.34411 -0.756702,5.83253 2.016744,11.52592 7.100088,14.57523 1.59624,0.95752 3.616349,1.67734 5.343279,1.90395 0.37254,0.0489 0.79164,0.10513 0.93134,0.12501 0.5159,0.0734 2.98731,-0.0303 3.72533,-0.15626 z"/></g></svg>