<svg width="16" height="16" viewBox="0 0 43.349 43.349" xml:space="preserve" xmlns="http://www.w3.org/2000/svg">
  <path style="fill:#fff" d="M89.66 169.035c-.325-.069-.935-.291-1.354-.495-1.274-.618-2.179-1.523-2.796-2.796-.676-1.395-.633-.274-.633-16.721 0-16.448-.043-15.327.633-16.722.617-1.273 1.523-2.179 2.796-2.796 1.395-.676.267-.633 16.782-.633 14.44.001 14.727.004 15.423.171a6.13 6.13 0 0 1 4.496 4.496c.167.696.17.983.17 15.424.001 16.517.043 15.405-.63 16.781-.627 1.28-1.527 2.18-2.798 2.796-1.396.676-.264.634-16.781.626-12.615-.006-14.8-.024-15.307-.131m30.576-1.673c1.452-.386 2.745-1.679 3.131-3.13.172-.647.172-29.772 0-30.418-.386-1.452-1.679-2.745-3.13-3.131-.36-.096-2.99-.116-15.215-.117-13.284 0-14.827.013-15.24.134a4.52 4.52 0 0 0-3.077 3.077c-.121.413-.135 1.958-.135 15.246 0 16.33-.04 15.12.534 16.203.5.945 1.627 1.842 2.676 2.132.597.164 29.84.169 30.456.005zm-17.156-2.552a15.7 15.7 0 0 1-5.409-1.67c-3.869-2.007-6.784-5.537-7.973-9.656-1.123-3.889-.814-7.764.905-11.374 1.91-4.013 5.632-7.2 9.81-8.404 3.54-1.02 7.087-.871 10.414.437 4.533 1.782 8.105 5.69 9.446 10.334.89 3.084.89 5.922 0 9.006-2.14 7.41-9.514 12.27-17.193 11.327m3.895-4.231c1.636-.265 3.233-.918 4.741-1.936.81-.547 2.37-2.108 2.93-2.932 1.105-1.627 1.697-3.148 1.99-5.12.365-2.452-.089-4.96-1.31-7.241-.978-1.827-2.884-3.733-4.71-4.71-2.318-1.242-5.047-1.7-7.578-1.271-2.469.417-4.542 1.498-6.35 3.311-1.921 1.927-2.952 3.976-3.346 6.654-.209 1.422-.209 1.87 0 3.292.394 2.678 1.425 4.728 3.346 6.654 1.22 1.224 2.246 1.92 3.768 2.556 1.206.504 1.577.596 3.683.904.434.064 1.994-.025 2.836-.161" transform="translate(-83.353 -127.348)"/>
</svg>
