<svg width="16" height="16" viewBox="0 0 43.349 43.349" xml:space="preserve" xmlns="http://www.w3.org/2000/svg">
  <path style="fill:#fff" d="M103.132 168.395c-2.653-.295-4.963-.967-7.175-2.088a19.9 19.9 0 0 1-8.915-9.031c-2.746-5.604-2.746-12.033 0-17.637a19.2 19.2 0 0 1 3.766-5.283c3.196-3.196 7.14-5.142 11.689-5.766 1.036-.142 3.958-.142 4.995 0 2.179.299 4.46.99 6.336 1.92 4.025 1.996 7.178 5.154 9.115 9.13.96 1.968 1.534 3.808 1.873 5.999.187 1.204.212 4.234.045 5.359-.567 3.816-1.981 7.123-4.294 10.045-.625.79-2.082 2.247-2.943 2.944-2.77 2.243-6.237 3.76-9.793 4.285-1.067.158-3.757.228-4.7.123m4.318-5.369c5.076-.866 9.428-4.385 11.26-9.106 1.409-3.627 1.409-7.297 0-10.924-.69-1.777-1.65-3.26-3.082-4.758-2.257-2.361-5.157-3.874-8.432-4.398-.874-.14-3.53-.14-4.403 0-3.289.526-6.166 2.026-8.43 4.394-2.267 2.373-3.597 5.138-4.013 8.344-.757 5.833 2.016 11.526 7.1 14.575 1.596.958 3.616 1.678 5.343 1.904.372.05.792.105.931.125.516.074 2.988-.03 3.726-.156" transform="translate(-83.362 -126.825)"/>
</svg>
