<?xml version="1.0" encoding="UTF-8" standalone="no"?>
<svg
   width="43.349331mm"
   height="43.349331mm"
   viewBox="0 0 43.349331 43.349331"
   version="1.1"
   xml:space="preserve"
   xmlns="http://www.w3.org/2000/svg"
   xmlns:svg="http://www.w3.org/2000/svg"><g
     transform="translate(-41.363533,-144.4471)"><path
       style="fill:#fff"
       d="m 61.683532,187.45066 c -2.924067,-0.27914 -5.770968,-1.34025 -8.04851,-2.99989 -0.600883,-0.43787 -1.754294,-1.46127 -2.260941,-2.00611 -0.220485,-0.2371 -0.440497,-0.47297 -0.488915,-0.52416 -0.209846,-0.22185 -1.130848,-1.48739 -1.392492,-1.9134 -0.931624,-1.51691 -1.69214,-3.38044 -2.021345,-4.953 -0.365413,-1.74553 -0.474302,-3.1367 -0.354978,-4.53523 0.13358,-1.56561 0.326512,-2.53239 0.784565,-3.93144 0.395414,-1.20773 0.915084,-2.32722 1.591758,-3.429 0.261644,-0.42602 1.182646,-1.69155 1.392492,-1.9134 0.04842,-0.0512 0.26843,-0.28706 0.488915,-0.52417 1.969902,-2.11838 4.512974,-3.65005 7.473118,-4.501 0.253248,-0.0728 0.712837,-0.17292 1.533529,-0.33408 1.914359,-0.37591 4.258324,-0.28053 6.425137,0.26147 2.984023,0.74642 5.765226,2.37315 7.802519,4.56371 0.225581,0.24255 0.449762,0.48288 0.49818,0.53407 0.209847,0.22185 1.130848,1.48738 1.392493,1.9134 1.384906,2.25495 2.13846,4.59344 2.375407,7.37156 0.119676,1.40315 0.01244,2.77337 -0.354062,4.52411 -0.329205,1.57256 -1.089722,3.43609 -2.021345,4.953 -0.261645,0.42601 -1.182646,1.69155 -1.392493,1.9134 -0.04842,0.0512 -0.26843,0.28706 -0.488914,0.52416 -2.67792,2.87977 -6.308222,4.62369 -10.436452,5.01346 -0.966856,0.0913 -1.479219,0.0898 -2.497666,-0.007 z m 3.175,-4.22571 c 2.585002,-0.42941 4.724765,-1.52651 6.505445,-3.33546 1.810732,-1.83949 2.848472,-3.88197 3.274079,-6.44406 0.368845,-2.22039 0.07959,-4.48894 -0.847434,-6.64633 -0.904994,-2.10612 -2.700511,-4.12562 -4.781673,-5.37818 -1.226204,-0.73799 -2.572735,-1.21827 -4.150417,-1.48035 -3.735076,-0.62046 -7.566195,0.62857 -10.230778,3.33547 -1.810733,1.83949 -2.848473,3.88197 -3.27408,6.44406 -0.368845,2.22038 -0.07959,4.48894 0.847434,6.64633 1.129798,2.62928 3.458592,4.91944 6.180424,6.0779 2.048222,0.87177 4.296887,1.14278 6.477,0.78062 z M 48.169727,159.43478 c -0.09834,-0.0397 -0.260269,-0.1758 -0.359834,-0.30238 l -0.181027,-0.23014 v -3.75074 c 0,-2.23166 0.03344,-3.83868 0.08256,-3.96787 0.129409,-0.34037 0.56922,-0.57208 1.002216,-0.528 0.436596,0.0444 0.743935,0.30223 0.869201,0.72904 0.05734,0.19539 0.07918,1.57682 0.06208,3.92749 l -0.02638,3.62608 -0.316257,0.28975 -0.316257,0.28975 -0.318743,-0.005 c -0.175309,-0.003 -0.399206,-0.0379 -0.497549,-0.0776 z m 27.887683,-0.16815 c -0.403266,-0.31721 -0.410616,-0.40087 -0.385312,-4.38545 l 0.02377,-3.74229 0.276795,-0.27673 0.276795,-0.27673 h 0.420077 0.420077 l 0.276795,0.27673 0.276795,0.27673 0.02373,3.72673 0.02373,3.72674 -0.140983,0.2971 c -0.07754,0.1634 -0.248254,0.35257 -0.379362,0.42037 -0.340653,0.17615 -0.859657,0.15601 -1.112909,-0.0432 z m -6.557368,-5.46892 c -0.148037,-0.0755 -0.329012,-0.26341 -0.402167,-0.41757 l -0.13301,-0.2803 v -2.84891 -2.84891 l 0.126516,-0.24465 c 0.184964,-0.35768 0.451523,-0.50894 0.896905,-0.50894 0.448041,0 0.758988,0.19451 0.915673,0.57278 0.0712,0.17188 0.09244,1.07192 0.07496,3.17634 l -0.02439,2.93649 -0.261906,0.2618 c -0.322355,0.32224 -0.798526,0.40284 -1.192583,0.20187 z m -15.23159,-0.10729 c -0.455427,-0.28638 -0.467496,-0.38615 -0.440934,-3.64524 l 0.02435,-2.98748 0.276502,-0.24697 0.276502,-0.24697 h 0.341536 c 0.462402,0 0.789714,0.18632 0.960841,0.54694 l 0.142549,0.3004 -0.0253,2.91915 -0.0253,2.91914 -0.264868,0.26476 c -0.343667,0.34353 -0.880917,0.41834 -1.265879,0.17627 z m 7.299581,-2.08575 c -0.123691,-0.11463 -0.262604,-0.30761 -0.308697,-0.42884 -0.0486,-0.12784 -0.08367,-1.2939 -0.08349,-2.77608 l 3.17e-4,-2.55565 0.168437,-0.27626 c 0.359103,-0.58898 1.101026,-0.67526 1.572933,-0.18291 l 0.247663,0.25839 0.02465,2.67794 c 0.01759,1.91127 -0.0039,2.74679 -0.07496,2.91843 -0.157827,0.38103 -0.467301,0.57341 -0.922412,0.57341 h -0.399552 z"/><path
       style="fill:#fff"
       d="m 61.683532,187.45066 c -2.924067,-0.27914 -5.770968,-1.34025 -8.04851,-2.99989 -0.600883,-0.43787 -1.754294,-1.46127 -2.260941,-2.00611 -0.220485,-0.2371 -0.440497,-0.47297 -0.488915,-0.52416 -0.209846,-0.22185 -1.130848,-1.48739 -1.392492,-1.9134 -0.931624,-1.51691 -1.69214,-3.38044 -2.021345,-4.953 -0.210864,-1.00727 -0.270723,-1.41482 -0.355231,-2.41856 l -0.08957,-1.06389 0.08982,-1.05278 c 0.13358,-1.56561 0.326512,-2.53239 0.784565,-3.93144 0.395414,-1.20773 0.915084,-2.32722 1.591758,-3.429 0.261644,-0.42602 1.182646,-1.69155 1.392492,-1.9134 0.04842,-0.0512 0.26843,-0.28706 0.488915,-0.52417 0.506647,-0.54483 1.660058,-1.56824 2.260941,-2.0061 1.678748,-1.2233 3.970886,-2.25697 5.88951,-2.65594 1.051993,-0.21876 1.355779,-0.26393 2.389911,-0.35537 l 1.100851,-0.0973 1.048619,0.095 c 1.599153,0.14482 2.671142,0.36744 4.181285,0.86835 2.20008,0.72976 4.708551,2.36241 6.363186,4.14153 0.225581,0.24255 0.449762,0.48288 0.49818,0.53407 0.209847,0.22185 1.130848,1.48738 1.392493,1.9134 1.384906,2.25495 2.13846,4.59344 2.375407,7.37156 l 0.09074,1.06389 -0.08982,1.05277 c -0.13358,1.56561 -0.326511,2.53239 -0.784565,3.93145 -0.395414,1.20773 -0.915083,2.32721 -1.591757,3.429 -0.261645,0.42601 -1.182646,1.69155 -1.392493,1.9134 -0.04842,0.0512 -0.26843,0.28706 -0.488914,0.52416 -2.67792,2.87977 -6.308222,4.62369 -10.436452,5.01346 -0.966856,0.0913 -1.479219,0.0898 -2.497666,-0.007 z m 3.175,-4.22571 c 2.585002,-0.42941 4.724765,-1.52651 6.505445,-3.33546 1.810732,-1.83949 2.848472,-3.88197 3.274079,-6.44406 l 0.168775,-1.016 v -0.84667 -0.84666 l -0.168775,-1.016 c -0.425466,-2.56124 -1.460232,-4.59706 -3.275523,-6.44435 -1.775438,-1.80673 -3.918539,-2.90569 -6.504001,-3.33518 l -1.016,-0.16877 h -0.846667 -0.846666 l -1.016,0.16877 c -2.585003,0.42942 -4.724766,1.52651 -6.505445,3.33547 -1.810733,1.83949 -2.848473,3.88197 -3.27408,6.44406 l -0.168775,1.016 v 0.84666 0.84667 l 0.168775,1.016 c 0.620884,3.73762 2.744501,6.70847 6.138858,8.58799 1.451147,0.80353 3.58821,1.33691 5.418666,1.35242 l 0.931334,0.008 z M 48.169727,159.43478 c -0.09834,-0.0397 -0.260269,-0.1758 -0.359834,-0.30238 l -0.181027,-0.23014 v -3.75074 -3.75073 l 0.08256,-0.21714 c 0.04541,-0.11943 0.207331,-0.29545 0.359834,-0.39115 l 0.277277,-0.17402 0.365105,0.0372 0.365105,0.0372 0.207819,0.19523 c 0.1143,0.10738 0.247625,0.33087 0.296277,0.49664 l 0.08846,0.30141 -0.02638,3.62608 -0.02638,3.62608 -0.316257,0.28975 -0.316257,0.28975 -0.318743,-0.005 c -0.175309,-0.003 -0.399206,-0.0379 -0.497549,-0.0776 z m 27.887683,-0.16815 c -0.116394,-0.0915 -0.256052,-0.27372 -0.310351,-0.40481 l -0.09873,-0.23834 0.02377,-3.7423 0.02377,-3.74229 0.276795,-0.27673 0.276795,-0.27673 h 0.420077 0.420077 l 0.276795,0.27673 0.276795,0.27673 0.02373,3.72673 0.02373,3.72674 -0.140983,0.2971 c -0.168518,0.35512 -0.497667,0.54364 -0.949194,0.54364 h -0.331453 z m -6.557368,-5.46892 -0.269157,-0.13727 -0.13301,-0.2803 -0.13301,-0.2803 v -2.84891 -2.84891 l 0.126516,-0.24465 c 0.06958,-0.13456 0.211412,-0.30412 0.315172,-0.3768 l 0.188656,-0.13214 h 0.393077 0.393076 l 0.211624,0.16646 c 0.116394,0.0916 0.256331,0.2744 0.310973,0.40632 l 0.09935,0.23985 -0.02439,2.93649 -0.02439,2.93649 -0.261906,0.2618 -0.261906,0.26181 -0.33076,0.0387 -0.330761,0.0387 z m -15.23159,-0.10729 c -0.143411,-0.0902 -0.306768,-0.27507 -0.363015,-0.41086 l -0.102268,-0.24689 0.02435,-2.98749 0.02435,-2.98748 0.276502,-0.24697 0.276502,-0.24697 h 0.341536 c 0.462402,0 0.789714,0.18632 0.960841,0.54694 l 0.142549,0.3004 -0.0253,2.91915 -0.0253,2.91914 -0.264868,0.26476 -0.264867,0.26476 -0.370133,0.0377 -0.370132,0.0377 z m 7.299581,-2.08575 c -0.123691,-0.11463 -0.262604,-0.30761 -0.308697,-0.42884 l -0.0838,-0.22042 3.16e-4,-2.55566 3.17e-4,-2.55565 0.168437,-0.27626 c 0.09264,-0.15195 0.29781,-0.33796 0.455931,-0.41336 l 0.287494,-0.13709 0.290922,0.0546 0.290922,0.0546 0.247664,0.25839 0.247663,0.25839 0.02465,2.67794 0.02465,2.67795 -0.09961,0.24048 c -0.05479,0.13226 -0.194842,0.31539 -0.311236,0.40694 l -0.211624,0.16647 h -0.399552 -0.399552 z"/></g></svg>
