<?xml version="1.0" encoding="UTF-8" standalone="no"?>
<svg
   width="16"
   height="16"
   viewBox="0 0 43.349331 43.349331"
   version="1.1"
   xml:space="preserve"
   xmlns="http://www.w3.org/2000/svg"
   xmlns:svg="http://www.w3.org/2000/svg">
   <g transform="translate(-83.352943,-127.34785)"><path
       style="fill:#fff"
       d="m 89.66061,169.03468 c -0.325967,-0.0686 -0.935567,-0.29106 -1.354667,-0.4944 -1.273681,-0.61795 -2.178963,-1.52339 -2.795604,-2.7961 -0.675845,-1.39491 -0.633396,-0.27424 -0.633396,-16.72167 0,-16.44743 -0.04245,-15.32676 0.633396,-16.72166 0.616821,-1.27308 1.522523,-2.17879 2.795604,-2.79561 1.395255,-0.67601 0.266938,-0.63347 16.781597,-0.6328 14.44095,5.8e-4 14.72758,0.004 15.42358,0.1706 2.20517,0.52864 3.96732,2.29079 4.49596,4.49596 0.16685,0.696 0.17002,0.98263 0.1706,15.42358 6.7e-4,16.5175 0.0425,15.40514 -0.63101,16.7816 -0.62635,1.28009 -1.52684,2.18001 -2.7974,2.7956 -1.39628,0.67652 -0.26391,0.63424 -16.78159,0.6265 -12.615096,-0.006 -14.79896,-0.0247 -15.30707,-0.1316 z m 30.57581,-1.67253 c 1.45166,-0.38654 2.74429,-1.67916 3.13082,-3.13083 0.17198,-0.64587 0.17198,-29.77175 0,-30.41762 -0.38653,-1.45166 -1.67916,-2.74429 -3.13082,-3.13082 -0.35936,-0.0957 -2.98989,-0.11586 -15.21461,-0.11669 -13.283915,-9.1e-4 -14.826686,0.0127 -15.24,0.13407 -1.488221,0.43713 -2.639327,1.58823 -3.076458,3.07645 -0.121385,0.41326 -0.135075,1.95849 -0.135075,15.2458 0,16.32985 -0.03984,15.12019 0.533604,16.20326 0.500305,0.94493 1.626852,1.84228 2.676263,2.13177 0.59648,0.16455 29.838996,0.16897 30.456276,0.005 z m -17.15614,-2.55198 c -1.93091,-0.23686 -3.69307,-0.78121 -5.409237,-1.67095 -3.868759,-2.00576 -6.78385,-5.53598 -7.973241,-9.65572 -1.12252,-3.88812 -0.814112,-7.76357 0.905136,-11.37395 1.910748,-4.01252 5.631619,-7.19994 9.810342,-8.40386 3.53981,-1.01985 7.08694,-0.87098 10.414,0.43704 4.53301,1.78215 8.10462,5.68979 9.44547,10.33413 0.8904,3.08413 0.8904,5.92251 0,9.00664 -2.13938,7.41026 -9.51376,12.26862 -17.19247,11.32667 z m 3.89466,-4.23142 c 1.63576,-0.265 3.23342,-0.91731 4.74134,-1.93583 0.8093,-0.54665 2.36969,-2.10842 2.92915,-2.93174 1.10602,-1.62766 1.69708,-3.14793 1.99065,-5.12013 0.36504,-2.4524 -0.0886,-4.95993 -1.30985,-7.2412 -0.97793,-1.82667 -2.88396,-3.73269 -4.71062,-4.71062 -2.31791,-1.24092 -5.0471,-1.69858 -7.57767,-1.27071 -2.46895,0.41745 -4.541751,1.49849 -6.349997,3.31175 -1.921083,1.9264 -2.951457,3.97575 -3.345465,6.6539 -0.20922,1.42212 -0.20922,1.8699 0,3.29201 0.394008,2.67816 1.424382,4.72751 3.345465,6.65391 1.220771,1.22415 2.24558,1.91936 3.767667,2.5559 1.2061,0.50439 1.57727,0.59552 3.683,0.90429 0.43457,0.0637 1.9942,-0.0251 2.83633,-0.16153 z"/></g></svg>
