<svg width="16" height="16" viewBox="0 0 43.349 43.349" xml:space="preserve" xmlns="http://www.w3.org/2000/svg">
  <path style="fill:#fff" d="M61.684 187.45c-2.925-.278-5.771-1.34-8.049-3-.6-.437-1.754-1.46-2.26-2.005l-.49-.524c-.21-.222-1.13-1.488-1.392-1.914-.932-1.517-1.692-3.38-2.022-4.953-.365-1.745-.474-3.137-.355-4.535.134-1.566.327-2.533.785-3.932a16 16 0 0 1 1.592-3.429c.261-.426 1.182-1.691 1.392-1.913l.49-.524c1.969-2.119 4.512-3.65 7.472-4.501.253-.073.713-.173 1.534-.334 1.914-.376 4.258-.28 6.425.261 2.984.747 5.765 2.373 7.802 4.564l.499.534c.21.222 1.13 1.487 1.392 1.913 1.385 2.255 2.139 4.594 2.375 7.372.12 1.403.013 2.773-.354 4.524-.329 1.573-1.09 3.436-2.02 4.953-.263.426-1.184 1.692-1.393 1.914-.049.05-.269.287-.49.524-2.677 2.88-6.308 4.623-10.436 5.013-.967.091-1.479.09-2.497-.007zm3.175-4.225c2.585-.43 4.724-1.527 6.505-3.336 1.81-1.839 2.848-3.881 3.274-6.444.369-2.22.08-4.489-.847-6.646-.905-2.106-2.7-4.126-4.782-5.378-1.226-.738-2.573-1.218-4.15-1.48a11.7 11.7 0 0 0-10.231 3.335c-1.811 1.84-2.849 3.882-3.274 6.444-.37 2.22-.08 4.489.847 6.646 1.13 2.63 3.459 4.92 6.18 6.078a11.67 11.67 0 0 0 6.478.78m-16.69-23.79a1.1 1.1 0 0 1-.36-.303l-.18-.23v-3.75c0-2.232.033-3.84.082-3.968.13-.34.57-.572 1.003-.528.436.044.744.302.869.729.057.195.079 1.577.062 3.927l-.026 3.626-.317.29-.316.29-.319-.005a1.8 1.8 0 0 1-.497-.078zm27.888-.168c-.403-.318-.41-.401-.385-4.386l.024-3.742.277-.277.276-.277h.84l.277.277.277.277.024 3.727.024 3.726-.141.297c-.078.164-.249.353-.38.42-.34.177-.86.157-1.113-.042m-6.557-5.47a1.05 1.05 0 0 1-.402-.417l-.133-.28v-5.698l.126-.245c.185-.357.452-.509.897-.509.448 0 .76.195.916.573.071.172.092 1.072.075 3.177l-.024 2.936-.262.262a1.02 1.02 0 0 1-1.193.202m-15.232-.107c-.455-.286-.467-.386-.44-3.645l.024-2.987.276-.247.277-.247h.341c.463 0 .79.186.961.547l.143.3-.026 2.92-.025 2.918-.265.265c-.343.344-.88.418-1.266.176m7.3-2.085a1.4 1.4 0 0 1-.309-.43c-.048-.127-.083-1.293-.083-2.775v-2.556l.169-.276c.359-.59 1.1-.675 1.573-.183l.247.258.025 2.678c.017 1.912-.004 2.747-.075 2.919q-.238.571-.923.573h-.4z" transform="translate(-41.364 -144.447)"/>
  <path style="fill:#fff" d="M61.684 187.45c-2.925-.278-5.771-1.34-8.049-3-.6-.437-1.754-1.46-2.26-2.005l-.49-.524c-.21-.222-1.13-1.488-1.392-1.914-.932-1.517-1.692-3.38-2.022-4.953a16 16 0 0 1-.355-2.418l-.09-1.064.09-1.053c.134-1.566.327-2.533.785-3.932a16 16 0 0 1 1.592-3.429c.261-.426 1.182-1.691 1.392-1.913l.49-.524c.506-.545 1.66-1.568 2.26-2.006 1.679-1.224 3.97-2.257 5.89-2.656 1.052-.219 1.355-.264 2.39-.356l1.1-.097 1.049.095c1.6.145 2.671.368 4.181.869 2.2.73 4.709 2.362 6.363 4.141l.499.534c.21.222 1.13 1.487 1.392 1.914 1.385 2.254 2.139 4.593 2.375 7.371l.091 1.064-.09 1.053c-.133 1.565-.326 2.532-.784 3.931a16 16 0 0 1-1.592 3.43c-.262.425-1.183 1.69-1.392 1.913-.049.05-.269.287-.49.524-2.677 2.88-6.308 4.623-10.436 5.013-.967.091-1.479.09-2.497-.007zm3.175-4.225c2.585-.43 4.724-1.527 6.505-3.336 1.81-1.839 2.848-3.881 3.274-6.444l.169-1.016v-1.693l-.169-1.016c-.425-2.561-1.46-4.597-3.275-6.444-1.776-1.807-3.919-2.906-6.504-3.335l-1.016-.17h-1.694l-1.016.17c-2.585.429-4.725 1.526-6.505 3.335-1.811 1.84-2.849 3.882-3.274 6.444l-.17 1.016v1.693l.17 1.016c.62 3.738 2.744 6.709 6.139 8.588 1.45.804 3.588 1.337 5.418 1.353l.932.008zm-16.69-23.79a1.1 1.1 0 0 1-.36-.303l-.18-.23v-7.501l.082-.217c.046-.12.208-.296.36-.392l.278-.174.365.038.365.037.208.195c.114.107.247.331.296.497l.088.301-.026 3.626-.026 3.626-.317.29-.316.29-.319-.005a1.8 1.8 0 0 1-.497-.078zm27.888-.168a1.2 1.2 0 0 1-.31-.405l-.099-.239.024-3.742.024-3.742.277-.277.276-.277h.84l.277.277.277.277.024 3.727.024 3.726-.141.297c-.169.356-.498.544-.95.544h-.331zm-6.557-5.47-.27-.137-.132-.28-.133-.28v-5.698l.126-.245a1.2 1.2 0 0 1 .316-.376l.188-.133h.786l.212.167a1.2 1.2 0 0 1 .311.406l.1.24-.025 2.937-.024 2.936-.262.262-.262.262-.331.038-.33.039zm-15.232-.107a1.07 1.07 0 0 1-.363-.41l-.102-.247.025-2.988.024-2.987.276-.247.277-.247h.341c.463 0 .79.186.961.547l.143.3-.026 2.92-.025 2.918-.265.265-.265.265-.37.038-.37.037zm7.3-2.085a1.4 1.4 0 0 1-.309-.43l-.083-.22v-5.111l.169-.276c.092-.152.297-.338.456-.414l.287-.137.291.055.29.055.249.258.247.258.025 2.678.025 2.678-.1.24a1.2 1.2 0 0 1-.311.408l-.212.166h-.8z" transform="translate(-41.364 -144.447)"/>
</svg>
