<?xml version="1.0" encoding="UTF-8" standalone="no"?>
<svg width="16" height="16" viewBox="0 0 144.49777 144.49777" version="1.1" id="svg1" xml:space="preserve" xmlns="http://www.w3.org/2000/svg" xmlns:svg="http://www.w3.org/2000/svg"><defs id="defs1" /><g id="layer1" transform="translate(-32.594475,-76.251114)"><path style="fill:#fff" d="m 67.73114,220.56891 c -3.467044,-0.7408 -5.646741,-1.91823 -7.625592,-4.11919 -1.497213,-1.66526 -2.140175,-2.81819 -2.785498,-4.99483 -0.411718,-1.38871 -0.454465,-7.31029 -0.454465,-62.95489 0,-66.523277 -0.08648,-62.533264 1.419505,-65.490295 1.336464,-2.624166 4.788406,-5.395106 7.752717,-6.223254 2.10122,-0.587024 75.509883,-0.587024 77.611103,0 2.96432,0.828148 6.41626,3.599088 7.75272,6.223254 1.50599,2.957031 1.41951,-1.032982 1.41951,65.490295 0,66.49335 0.0853,62.54053 -1.41329,65.47555 -0.77871,1.52512 -2.78667,3.65455 -4.44848,4.7176 -3.1983,2.04593 -0.0253,1.89658 -41.41045,1.9491 -20.489336,0.026 -37.507335,-0.007 -37.81778,-0.0733 z m 42.19222,-19.04896 c 10.56924,-1.5277 19.95315,-8.40386 24.77774,-18.15614 5.54122,-11.20088 4.35124,-24.62459 -3.06469,-34.57129 -1.87875,-2.5199 -5.692,-6.22358 -7.9274,-7.69961 -6.09687,-4.02576 -11.67205,-5.71452 -18.86565,-5.71452 -9.003617,0 -16.441448,2.94058 -22.834185,9.02758 -6.854189,6.52639 -10.468798,14.89653 -10.467649,24.23933 0.0015,11.93127 6.156144,22.55911 16.727581,28.88504 6.110329,3.65641 13.957283,5.10215 21.654253,3.98961 z m -8.45866,-19.32319 c -2.521037,-0.67749 -4.535297,-1.83854 -6.404927,-3.69189 -5.631317,-5.58229 -5.655601,-14.20282 -0.0558,-19.80265 5.455377,-5.45539 14.223337,-5.45539 19.678727,0 5.60369,5.6037 5.56586,14.35306 -0.0859,19.85445 -3.56159,3.46686 -8.59008,4.8607 -13.13217,3.64009 z m 7.29684,-58.14308 c 5.83088,-1.63832 9.9929,-7.20939 9.98079,-13.35975 -0.0152,-7.71733 -6.16429,-13.840595 -13.89897,-13.840595 -3.7418,0 -6.844517,1.225486 -9.527787,3.763215 -8.58335,8.11778 -3.882737,22.25775 7.975567,23.9914 1.2526,0.18313 3.7446,-0.0694 5.4704,-0.55427 z" id="path1" /></g></svg>
