<svg width="16" height="16" viewBox="0 0 144.498 144.498" xml:space="preserve" xmlns="http://www.w3.org/2000/svg">
  <path style="fill:#fff" d="M67.731 220.569c-3.467-.74-5.647-1.918-7.625-4.12-1.498-1.665-2.14-2.817-2.786-4.994-.412-1.389-.454-7.31-.454-62.955 0-66.523-.087-62.533 1.42-65.49 1.336-2.624 4.787-5.395 7.752-6.224 2.101-.587 75.51-.587 77.61 0 2.965.829 6.417 3.6 7.754 6.224 1.506 2.957 1.42-1.033 1.42 65.49 0 66.493.084 62.54-1.414 65.476-.779 1.525-2.787 3.654-4.449 4.717-3.198 2.046-.025 1.897-41.41 1.95-20.49.025-37.507-.008-37.818-.074m42.192-19.05c10.57-1.527 19.954-8.403 24.778-18.155 5.541-11.201 4.351-24.625-3.065-34.571-1.878-2.52-5.692-6.224-7.927-7.7-6.097-4.026-11.672-5.715-18.866-5.715-9.003 0-16.441 2.941-22.834 9.028-6.854 6.526-10.469 14.896-10.467 24.24.001 11.93 6.156 22.558 16.727 28.884 6.11 3.657 13.957 5.102 21.654 3.99m-8.458-19.322c-2.521-.678-4.536-1.839-6.405-3.692-5.632-5.582-5.656-14.203-.056-19.803a13.877 13.877 0 0 1 19.679 0c5.603 5.604 5.566 14.353-.086 19.855-3.562 3.467-8.59 4.86-13.132 3.64m7.297-58.143c5.83-1.639 9.992-7.21 9.98-13.36-.015-7.717-6.164-13.84-13.899-13.84-3.741 0-6.844 1.225-9.527 3.763-8.584 8.117-3.883 22.257 7.975 23.99 1.253.184 3.745-.068 5.47-.553" transform="translate(-32.594 -76.251)"/>
</svg>
